<svg height="512" viewBox="0 0 128 128" width="512" xmlns="http://www.w3.org/2000/svg"><g><path d="m103.212 99.793-24.629-36.6a10.239 10.239 0 0 1 -1.753-5.723v-43.22h1a4.75 4.75 0 0 0 0-9.5h-27.663a4.75 4.75 0 0 0 0 9.5h1v43.22a10.241 10.241 0 0 1 -1.752 5.723l-24.627 36.6a13.654 13.654 0 0 0 -2.351 7.681v2.03a13.765 13.765 0 0 0 13.75 13.75h55.623a13.765 13.765 0 0 0 13.75-13.75v-2.03a13.652 13.652 0 0 0 -2.348-7.681zm-54.295-90.293a1.252 1.252 0 0 1 1.25-1.25h27.666a1.25 1.25 0 0 1 0 2.5h-27.666a1.252 1.252 0 0 1 -1.25-1.25zm53.143 100a10.261 10.261 0 0 1 -10.25 10.25h-55.62a10.261 10.261 0 0 1 -10.25-10.25v-2.03a10.168 10.168 0 0 1 1.752-5.723l24.631-36.6a13.727 13.727 0 0 0 2.347-7.677v-43.22h18.66v43.22a13.726 13.726 0 0 0 2.348 7.677l24.633 36.6a10.166 10.166 0 0 1 1.749 5.719z"/><path d="m87.292 86.873a1.754 1.754 0 0 0 -1.862-.724c-6.608 1.595-13.314.341-19-1.095-2.055-.522-4.177-1.145-6.23-1.747a77.817 77.817 0 0 0 -13.839-3.179 1.752 1.752 0 0 0 -1.623.765l-14.984 22.256a7.771 7.771 0 0 0 -1.314 4.321v2.03a7.759 7.759 0 0 0 7.75 7.75h55.62a7.759 7.759 0 0 0 7.75-7.75v-2.03a7.777 7.777 0 0 0 -1.318-4.327zm8.768 22.627a4.255 4.255 0 0 1 -4.25 4.25h-55.62a4.255 4.255 0 0 1 -4.25-4.25v-2.03a4.27 4.27 0 0 1 .721-2.372l14.387-21.368a83.407 83.407 0 0 1 12.167 2.935c2.083.611 4.237 1.244 6.356 1.782 5.772 1.457 12.549 2.73 19.481 1.366l10.282 15.278a4.274 4.274 0 0 1 .726 2.379z"/><path d="m61.19 49.186a4.75 4.75 0 1 0 4.75-4.75 4.756 4.756 0 0 0 -4.75 4.75zm6 0a1.25 1.25 0 1 1 -1.25-1.25 1.251 1.251 0 0 1 1.25 1.25z"/><path d="m61.94 33.943a4.75 4.75 0 1 0 -4.75-4.75 4.754 4.754 0 0 0 4.75 4.75zm0-6a1.25 1.25 0 1 1 -1.25 1.25 1.251 1.251 0 0 1 1.25-1.25z"/><path d="m59.94 75.8a4.75 4.75 0 1 0 -4.75-4.75 4.755 4.755 0 0 0 4.75 4.75zm0-6a1.25 1.25 0 1 1 -1.25 1.25 1.25 1.25 0 0 1 1.25-1.25z"/></g></svg>